<?xml version="1.0" standalone="no"?>
<!DOCTYPE svg PUBLIC "-//W3C//DTD SVG 1.1//EN" "http://www.w3.org/Graphics/SVG/1.1/DTD/svg11.dtd" >
<!--
2013-9-30: Created.
-->
<svg>
<metadata>
Created by iconfont
</metadata>
<defs>

<font id="iconfont" horiz-adv-x="1024" >
  <font-face
    font-family="iconfont"
    font-weight="500"
    font-stretch="normal"
    units-per-em="1024"
    ascent="896"
    descent="-128"
  />
    <missing-glyph />
    
    <glyph glyph-name="success" unicode="&#58896;" d="M512-121.30405262c-279.07104541 0-505.30405262 226.23417117-505.30405262 505.30521657 0 279.07220935 226.23300722 505.30405262 505.30405262 505.30405262s505.30405262-226.23184327 505.30405262-505.30405262C1017.30405262 104.92895458999999 791.07104541-121.30405262 512-121.30405262zM745.68333085 563.47841081c-16.33971655 11.71746589-39.26468608 8.26533091-53.50517874-5.9076335L450.57761507 317.07748466c-8.83816334-8.7950848-23.16481422-8.7950848-32.00297756 0l-90.34929607 89.93713607c-14.23932871 14.1752923-37.16429824 17.62509824-53.50867171 5.91461831-20.82108871-14.92859107-22.55239509-44.0150107-5.18926336-61.29664114l148.93313024-148.25201777c8.87309312-8.90802176 23.25679331-8.90802176 32.13105038-0.00232904l300.28333738 298.80584648C768.23339805 519.46107221 766.50441955 548.55447666 745.68333085 563.47841081z"  horiz-adv-x="1024" />

    
    <glyph glyph-name="jiahao" unicode="&#58900;" d="M890.85817437 425.97346219L555.09829906 425.97346219 555.09829906 761.7323775c0 23.17021031-18.80325094 41.97346219-41.97250219 41.97346219-23.17117031 0-41.97442125-18.80325094-41.97442125-41.97346219l0-335.75891531L135.39246031 425.97346219c-23.17117031 0-41.97346219-18.80325094-41.97346219-41.97346219s18.80325094-41.97442125 41.97346219-41.97442125l335.75891532 0-1e-8-335.75987437c0-23.21434031 18.80325094-41.97250219 41.97442127-41.97250219 23.16925125 0 41.97250219 18.75816187 41.97250217 41.97250218L555.09829906 342.02557875l335.75987438 0c23.21530031 0 41.97346219 18.80421094 41.97346218 41.97442125S914.07347375 425.97346219 890.85817437 425.97346219L890.85817437 425.97346219zM890.85817437 425.97346219"  horiz-adv-x="1024" />

    
    <glyph glyph-name="cc-dot" unicode="&#59104;" d="M692.071703 566.1382699999999c-48.372707 48.387034-112.705921 75.023694-181.146687 75.023694-68.440765 0-132.747373-26.63666-181.148733-75.023694-48.400337-48.374754-75.022671-112.707968-75.022671-181.123151s26.623357-132.74635 75.022671-181.146687c48.374754-48.402383 112.707968-75.023694 181.148733-75.023694 68.441788 0 132.745327 26.647917 181.146687 75.023694 48.427966 48.373731 75.024717 112.706945 75.024717 181.146687C767.096421 453.455885 740.447481 517.762493 692.071703 566.1382699999999z"  horiz-adv-x="1024" />

    
    <glyph glyph-name="exit" unicode="&#58883;" d="M951.737186 407.787776L802.424532 594.43064c-7.222495 9.027607-18.034748 14.011108-29.157064 14.011108-4.131087 0-8.300037-0.688685-12.349259-2.106987-14.957667-5.246491-24.970718-19.371186-24.970718-35.223223l0-111.98756-298.631448 0c-41.232077 0-74.656327-33.42425-74.656327-74.656327 0-41.2331 33.42425-74.656327 74.656327-74.656327l298.631448 0 0-111.98756c0-15.852036 10.013051-29.977755 24.970718-35.223223 4.049223-1.424442 8.218172-2.108011 12.349259-2.108011 11.123338 0 21.934568 4.978385 29.157064 14.013155l149.311631 186.643887C962.64563 374.778988 962.64563 394.151197 951.737186 407.787776L951.737186 407.787776zM586.628698 85.83722599999999L362.66074 85.83722599999999l-74.656327 0 0 0.011256c-0.199545 0-0.393973-0.011256-0.587378-0.011256-40.906665 0-74.076112 33.42425-74.076112 74.656327l0 74.656327 0 298.631448 0 74.656327 0.011256 0c0 0.199545-0.011256 0.393973-0.011256 0.587378 0 40.906665 33.429367 74.076112 74.66349 74.076112l74.656327 0 223.967958 0c41.2331 0 74.66349 33.422204 74.66349 74.656327 0 41.232077-33.429367 74.656327-74.66349 74.656327L213.340923 832.413799c-82.459037 0-149.311631-66.853617-149.311631-149.311631l0-597.262896c0-82.4662 66.853617-149.311631 149.311631-149.311631l373.286752 0c41.2331 0 74.66349 33.422204 74.66349 74.656327C661.291165 52.41399899999999 627.861798 85.83722599999999 586.628698 85.83722599999999L586.628698 85.83722599999999zM586.628698 85.83722599999999"  horiz-adv-x="1024" />

    
    <glyph glyph-name="shuaxin" unicode="&#58907;" d="M978.03377778 764.59425185L978.03377778 764.59425185l0-217.48242963 0 0c0-23.30168889-7.76722963-38.83614815-23.30168889-54.3706074-15.53445925-15.53445925-38.83614815-23.30168889-54.37060741-23.3016889l0 0-217.48242963 0 0 0c-23.30168889 0-38.83614815 7.76722963-54.3706074 23.3016889-31.06891852 31.06891852-31.06891852 77.6722963 0 108.74121481C644.0429037 617.01688889 659.57736297 624.78411852 682.87905185 624.78411852l0 0 31.06891852 0C651.81013333 671.3874963000001 589.6722963 694.68918518 519.76722963 694.68918518 426.56047408 694.68918518 348.88817778 663.62026667 294.51757037 601.4824296300001l0 0c-31.06891852-31.06891852-77.6722963-31.06891852-108.74121482 0-31.06891852 31.06891852-31.06891852 77.6722963 0 108.74121482l0 0C271.21588148 795.66317037 387.72432592 850.03377778 519.76722963 850.03377778c116.50844445 0 225.24965925-46.60337778 302.92195555-116.50844445L822.68918518 764.59425185l0 0c0 23.30168889 7.76722963 38.83614815 23.3016889 54.3706074 31.06891852 31.06891852 77.6722963 31.06891852 108.74121481 0C970.26654815 811.1976296299999 978.03377778 787.89594075 978.03377778 764.59425185zM395.49155555 166.51757037000004c-15.53445925-15.53445925-38.83614815-23.30168889-54.3706074-23.30168889l0 0L317.81925925 143.21588148C372.18986667 96.61250370000005 434.3277037 73.31081482000002 504.23277037 73.31081482000002c85.43952592 0 163.11182222 31.06891852 217.48242963 93.20675555l0 0c31.06891852 31.06891852 77.6722963 31.06891852 108.74121482 0 31.06891852-31.06891852 31.06891852-77.6722963 0-108.74121482l0 0C752.78411852-27.66317036999999 636.27567408-82.03377778000004 504.23277037-82.03377778000004c-116.50844445 0-225.24965925 46.60337778-302.92195555 116.50844445l0-38.83614815 0 0c0-23.30168889-7.76722963-38.83614815-23.3016889-54.37060741-31.06891852-31.06891852-77.6722963-31.06891852-108.74121481 0C53.73345185-43.19762963000005 45.96622222-19.895940750000022 45.96622222 3.405748150000022l0 0 0 217.48242963 0 0c0 23.30168889 7.76722963 38.83614815 23.30168889 54.3706074C84.80237037 290.79324445 100.33682963 298.56047407999995 123.63851852 298.56047407999995l0 0 217.48242963 0 0 0c23.30168889 0 38.83614815-7.76722963 54.3706074-23.3016889C426.56047408 244.18986667000001 426.56047408 197.58648889000006 395.49155555 166.51757037000004z"  horiz-adv-x="1024" />

    
    <glyph glyph-name="fuxuankuang" unicode="&#59362;" d="M843.40179753 881.1026963L180.59820247 881.1026963C89.46270815 881.1026963 14.8973037 806.53729185 14.8973037 715.4017975300001l0-662.80359506c0-91.13549431 74.56540445-165.70089876 165.70089877-165.70089877l662.80359506 0c91.13549431 0 165.70089876 74.56540445 165.70089877 165.70089877L1009.1026963 715.4017975300001C1009.1026963 806.53729185 934.53729185 881.1026963 843.40179753 881.1026963zM926.25224691 52.59820247000005c0-45.56774717-37.28270222-82.85044939-82.85044938-82.85044938L180.59820247-30.252246910000054c-45.56774717 0-82.85044939 37.28270222-82.85044938 82.85044938L97.74775309 715.4017975300001c0 45.56774717 37.28270222 82.85044939 82.85044938 82.85044938l662.80359506 0c45.56774717 0 82.85044939-37.28270222 82.85044938-82.85044938L926.25224691 52.59820247000005z"  horiz-adv-x="1024" />

    
    <glyph glyph-name="choiceO" unicode="&#58939;" d="M511.8481006 891.88050839c-278.70888962 0-504.68234975-225.92541652-504.68234974-504.68376374 0-278.70888962 225.97346012-504.68376372 504.68234974-504.68376372 278.75975981 0 504.68376372 225.97487271 504.68376374 504.68376372C1016.53186294 665.95650445 790.60927163 891.88050839 511.8481006 891.88050839zM511.8481006 160.09145349999994c-125.43122382 0-227.10670374 101.67548132-227.10670375 227.10670375s101.67548132 227.10811773 227.10670375 227.10811774c125.43404901 0 227.10811773-101.67689392 227.10811774-227.10811774S637.28214961 160.09145349999994 511.8481006 160.09145349999994z"  horiz-adv-x="1024" />

    
    <glyph glyph-name="ue60ddelete" unicode="&#58882;" d="M724.384592 838.58863573c0 16.46356053-13.34521173 29.80974293-29.815568 29.80974294L329.43000533 868.39837867c-16.47035627 0-29.815568-13.34521173-29.815568-29.80974294l0-89.4457344 424.77015467 0L724.384592 838.58863573zM56.88905067 687.4166848l0-59.63696213 119.2904288 0 0-608.922624c0-65.8620096 53.380848-119.2554784 119.26130346-119.2554784l428.94381014 0c65.8794848 0 119.26130347 53.3934688 119.26130346 119.2554784l0 608.922624 123.46505494 0 0 59.63696213L56.88905067 687.4166848zM359.22130347 81.64638933000003l-59.60686614 0L299.61443733 558.685776l59.60686614 0L359.22130347 81.64638933000003zM541.2951968 81.64638933000003l-59.63696213 0L481.65823467 558.685776l59.63696213 0L541.2951968 81.64638933000003zM723.3098688 81.64638933000003l-59.60686613 0L663.70300267 558.685776l59.60686613 0L723.3098688 81.64638933000003z"  horiz-adv-x="1024" />

    
    <glyph glyph-name="gengduo" unicode="&#58894;" d="M162.0000002 283.99999979999996c55.0000002 0 100.0000002 45 100.00000019 100.0000002s-45 100.0000002-100.00000019 100.0000002-100.0000002-45-100.0000002-100.0000002 45-100.0000002 100.0000002-100.0000002z m349.9999998 0c55.0000002 0 100.0000002 45 100.0000002 100.0000002s-45 100.0000002-100.0000002 100.0000002-100.0000002-45-100.0000002-100.0000002 45-100.0000002 100.0000002-100.0000002z m349.9999998 0c55.0000002 0 100.0000002 45 100.0000002 100.0000002s-45 100.0000002-100.0000002 100.0000002-100.0000002-45-100.00000019-100.0000002 45-100.0000002 100.00000019-100.0000002z"  horiz-adv-x="1024" />

    
    <glyph glyph-name="lingdang" unicode="&#59584;" d="M512-125.72444444999996c56.43377778 0 100.12444445 43.69066667 100.12444445 100.12444445H411.87555555c0-56.43377778 43.69066667-100.12444445 100.12444445-100.12444445z m328.59022222 325.85955556V460.45866667c0 156.55822222-111.04711111 287.63022222-255.77244444 322.21866666v32.768c0 36.40888889-20.02488889 69.17688889-54.61333333 76.45866667-50.06222222 11.83288889-91.02222222-26.39644445-91.02222223-75.54844445v-34.58844444C294.45688889 748.08888889 183.40977778 617.01688889 183.40977778 460.45866667v-260.32355556L84.19555555 98.19022222000001v-50.97244444h855.6088889v50.97244444l-99.21422223 101.94488889z"  horiz-adv-x="1024" />

    
    <glyph glyph-name="shanchu" unicode="&#58917;" d="M512 896c-283.105882 0-512-228.894118-512-512s228.894118-512 512-512 512 228.894118 512 512S795.105882 896 512 896z m222.870588-644.517647c24.094118-24.094118 24.094118-66.258824 0-90.352941-24.094118-24.094118-66.258824-24.094118-90.352941 0l-132.517647 132.517647-132.517647-138.541177c-24.094118-24.094118-66.258824-24.094118-90.352941 0-12.047059 18.070588-18.070588 30.117647-18.070588 48.188236s6.023529 36.141176 18.070588 48.188235l132.517647 132.517647-132.517647 126.494118c-12.047059 18.070588-18.070588 30.117647-18.070588 48.188235 0 18.070588 6.023529 36.141176 18.070588 48.188235 24.094118 24.094118 66.258824 24.094118 90.352941 0l132.517647-132.517647 132.517647 132.517647c24.094118 24.094118 66.258824 24.094118 90.352941 0 24.094118-24.094118 24.094118-66.258824 0-90.352941l-132.517647-132.517647 132.517647-132.517647z"  horiz-adv-x="1024" />

    
    <glyph glyph-name="input-triangle" unicode="&#58941;" d="M781.91727033 162.74323708999998L450.03212595 605.25676291h663.77028875L781.91727033 162.74323708999998"  horiz-adv-x="1536" />

    
    <glyph glyph-name="table-del" unicode="&#58953;" d="M512-128a512 512 0 1 0 512 512 512 512 0 0 0-512-512z m219.428571 585.142857H292.571429a73.142857 73.142857 0 0 1 0-146.285714h438.857142a73.142857 73.142857 0 0 1 0 146.285714z"  horiz-adv-x="1024" />

    
    <glyph glyph-name="table-add" unicode="&#58954;" d="M512-128a512 512 0 1 0 512 512 512 512 0 0 0-512-512z m219.428571 585.142857H585.142857V603.4285709999999a73.142857 73.142857 0 0 1-146.285714 0v-146.285714H292.571429a73.142857 73.142857 0 0 1 0-146.285714h146.285714v-146.285714a73.142857 73.142857 0 0 1 146.285714 0V310.85714299999995h146.285714a73.142857 73.142857 0 0 1 0 146.285714z"  horiz-adv-x="1024" />

    
    <glyph glyph-name="used-search" unicode="&#58982;" d="M876.032 20.333713999999986a66.377143 66.377143 0 0 0-93.732571 0l-135.826286 135.753143a333.970286 333.970286 0 1 0 93.586286 93.696l135.972571-135.936a65.828571 65.828571 0 0 0 0-93.513143zM611.145143 582.509714a210.505143 210.505143 0 1 1 0-297.508571 210.834286 210.834286 0 0 1 0 297.508571z"  horiz-adv-x="1024" />

    
    <glyph glyph-name="fuzhi" unicode="&#58955;" d="M730.32817778 602.4533333300001l0.12515555-0.12515555v-582.29191111l-0.12515555-0.12515556H148.03626667l-0.12515556 0.12515556V602.32817778l0.12515556 0.12515555h582.29191111m0.12515555 72.81777778H147.91111111a73.03395555 73.03395555 0 0 1-72.81777778-72.81777778v-582.54222222a73.03395555 73.03395555 0 0 1 72.81777778-72.81777778h582.54222222a73.03395555 73.03395555 0 0 1 72.81777778 72.81777778V602.4533333300001a73.03395555 73.03395555 0 0 1-72.81777778 72.81777778zM657.63555555 456.81777778H220.72888889v-72.81777778h436.90666666v72.81777778zM657.63555555 238.36444444999995H220.72888889v-72.81777778h436.90666666v72.81777778zM876.08888889 820.90666667H293.54666667a73.03395555 73.03395555 0 0 1-72.81777778-72.81777778v-36.40888889h72.81777778v36.28373333l0.12515555 0.12515556h582.29191111l0.12515556-0.12515556v-582.29191111l-0.12515556-0.12515555H839.68v-72.81777778h36.40888889a73.03395555 73.03395555 0 0 1 72.81777778 72.81777778V748.08888889a73.03395555 73.03395555 0 0 1-72.81777778 72.81777778z"  horiz-adv-x="1024" />

    
    <glyph glyph-name="danxuankuang1" unicode="&#58928;" d="M89.65688889 384A422.34311111 422.34311111 0 1 1 512 806.34311111 422.34311111 422.34311111 0 0 1 89.65688889 384zM16.83911111 384a495.16088889 495.16088889 0 1 0 495.16088889-495.16088889A495.16088889 495.16088889 0 0 0 16.83911111 384z"  horiz-adv-x="1024" />

    
    <glyph glyph-name="fuxuankuang1" unicode="&#59144;" d="M1029.81530864 707.6345679v-647.2691358c0-53.46443061-19.02971259-99.29108543-56.95968395-137.22105679s-83.62717235-56.95968395-137.22105679-56.95968395H188.49488592c-53.46443061 0-99.29108543 19.02971259-137.22105678 56.95968395s-56.95968395 83.62717235-56.95968396 137.22105679V707.6345679c0 53.46443061 19.02971259 99.29108543 56.95968396 137.22105679s83.62717235 56.95968395 137.22105678 56.95968395h647.26913581c53.46443061 0 99.29108543-19.02971259 137.22105679-56.95968395 37.80051753-37.92997136 56.83023013-83.75662617 56.83023012-137.22105679zM455.94649283 112.27641679999999l413.86388544 413.86388542c8.54395259 8.54395259 12.81592889 18.51189728 12.8159289 30.29219556 0 11.65084445-4.2719763 21.8776968-12.8159289 30.29219555l-68.6105284 68.86943606c-8.54395259 8.54395259-18.77080494 12.81592889-30.29219556 12.81592888-11.65084445 0-21.8776968-4.2719763-30.29219555-12.81592888l-314.83170765-314.5728-142.39920987 142.26975604c-8.54395259 8.54395259-18.77080494 12.81592889-30.29219555 12.81592888-11.65084445 0-21.8776968-4.2719763-30.29219556-12.81592888l-68.73998223-68.73998223c-8.54395259-8.54395259-12.81592889-18.77080494-12.81592888-30.29219555s4.2719763-21.8776968 12.81592888-30.29219555l241.30193383-241.30193383c8.54395259-8.54395259 18.51189728-12.81592889 30.29219555-12.81592888 11.78029827-0.38836148 21.8776968 3.88361482 30.29219555 12.42756741z"  horiz-adv-x="1024" />

    
    <glyph glyph-name="jiantou_yemian_xiangyou" unicode="&#60171;" d="M384.63696988 394.76103065L109.8009592 119.92501997 203.64740154 26.07857763000004l368.68245459 368.68245302L203.64740154 763.44348525 109.8009592 669.59704291l274.83601068-274.83601226z m402.19904081 0L512 119.92501997l93.84644233-93.84644234 368.68245459 368.68245302L612.5497602 763.44348525 512 669.59704291l274.83601069-274.83601226z"  horiz-adv-x="1024" />

    
    <glyph glyph-name="jiantou-you-cuxiantiao" unicode="&#59052;" d="M512 296.61866666000003L791.13481444 575.7534811c16.99081443 16.99081443 46.11792555 16.99081443 63.10874111 0l4.8545189-4.85451776c16.99081443-16.99081443 16.99081443-46.11792555 0-65.536l-313.11644444-313.11644444c-9.70903666-9.70903666-21.84533333-14.56355555-33.98163001-12.13629668-12.13629667 0-24.27259221 4.8545189-33.98163001 12.13629668L164.90192555 505.36296334c-16.99081443 16.99081443-16.99081443 46.11792555 0 63.10873999l4.8545189 4.85451889c16.99081443 16.99081443 46.11792555 16.99081443 63.10874112-1e-8L512 296.61866666000003z"  horiz-adv-x="1024" />

    
    <glyph glyph-name="bianji" unicode="&#58962;" d="M917 429c-24.9 0-45-20.1-45-45v-300c0-33.1-26.9-60-60-60H212c-33.1 0-60 26.9-60 60V684c0 33.1 26.9 60 60 60h300c24.9 0 45 20.1 45 45s-20.1 45-45 45H182c-66.3 0-120-53.7-120-120v-660c0-66.3 53.7-120 120-120h660c66.3 0 120 53.7 120 120V384c0 24.9-20.1 45-45 45zM356.2 213.2c17.5-17.5 46.1-17.5 63.6 0l487.9 487.9c17.5 17.5 17.5 46.1 0 63.6s-46.1 17.5-63.6 0L356.2 276.9c-17.5-17.5-17.5-46.2 0-63.7z"  horiz-adv-x="1024" />

    
    <glyph glyph-name="warn-sign" unicode="&#58957;" d="M512-128a512 512 0 1 0 512 512 512 512 0 0 0-512-512zM576 651.2a65.216 65.216 0 0 1-128 0v-323.2a65.216 65.216 0 0 1 128 0v323.2z m-64-459.712a64 64 0 1 1 64-64 64 64 0 0 1-64 64z"  horiz-adv-x="1024" />

    
    <glyph glyph-name="caozuo-shangchuan-upload" unicode="&#58977;" d="M812.37333333 547.8399999999999C785.06666667 687.7866666699999 662.18666667 793.6 512 793.6s-273.06666667-105.81333333-300.37333333-245.76C109.22666667 520.53333333 34.13333333 424.96 34.13333333 315.73333333000005c0-133.12 105.81333333-238.93333333 238.93333334-238.93333333h34.13333333v68.26666667h-34.13333333c-95.57333333 0-170.66666667 75.09333333-170.66666667 170.66666666s75.09333333 170.66666667 170.66666667 170.66666667c0 133.12 105.81333333 238.93333333 238.93333333 238.93333333s238.93333333-105.81333333 238.93333333-238.93333333c95.57333333 0 170.66666667-75.09333333 170.66666667-170.66666667s-75.09333333-170.66666667-170.66666667-170.66666666h-34.13333333v-68.26666667h34.13333333c133.12 0 238.93333333 105.81333333 238.93333334 238.93333333 0 109.22666667-75.09333333 204.8-177.49333334 232.10666667zM542.72 407.89333333c-13.65333333 10.24-27.30666667 13.65333333-40.96 6.82666667-3.41333333 0-6.82666667-3.41333333-10.24-6.82666667l-102.4-98.98666666c-13.65333333-13.65333333-13.65333333-34.13333333 0-47.78666667 13.65333333-13.65333333 37.54666667-13.65333333 51.2 0l40.96 37.54666667v-290.13333334c0-20.48 17.06666667-34.13333333 34.13333333-34.13333333 20.48 0 34.13333333 17.06666667 34.13333334 34.13333333V298.66666667000004l40.96-37.54666667c13.65333333-13.65333333 37.54666667-13.65333333 51.2 0 13.65333333 13.65333333 13.65333333 34.13333333 0 47.78666667l-98.98666667 98.98666666z"  horiz-adv-x="1024" />

    
    <glyph glyph-name="jiantou-you-cuxiantiao-copy" unicode="&#60172;" d="M599.38133334 384L320.2465189 663.13481444c-16.99081443 16.99081443-16.99081443 46.11792555 0 63.10874111l4.85451776 4.8545189c16.99081443 16.99081443 46.11792555 16.99081443 65.536 0l313.11644444-313.11644444c9.70903666-9.70903666 14.56355555-21.84533333 12.13629668-33.98163001 0-12.13629667-4.8545189-24.27259221-12.13629668-33.98163001L390.63703666 36.90192554999999c-16.99081443-16.99081443-46.11792555-16.99081443-63.10873999 0l-4.85451889 4.8545189c-16.99081443 16.99081443-16.99081443 46.11792555 1e-8 63.10874112L599.38133334 384z"  horiz-adv-x="1024" />

    


  </font>
</defs>
</svg>
